<svg width="278" height="205" viewBox="0 0 278 205" fill="none" xmlns="http://www.w3.org/2000/svg">
<g clip-path="url(#clip0_56_366)">
<path d="M135.404 23.5403C141.898 23.5403 147.163 18.2707 147.163 11.7704C147.163 5.27005 141.898 0.000488281 135.404 0.000488281C128.91 0.000488281 123.645 5.27005 123.645 11.7704C123.645 18.2707 128.91 23.5403 135.404 23.5403Z" fill="#FF6884"/>
<path d="M123.791 86.4088L110.504 86.5922L105.176 27.1361C105.047 25.693 105.513 24.2339 106.454 23.1331L119.52 7.85419C121.349 5.71556 124.459 5.32969 126.754 6.95745L143.119 18.563C144.454 19.5098 145.281 20.9901 145.388 22.6243L148.33 67.421L155.732 76.1902L155.747 76.2088L157.641 85.9413L123.791 86.4088Z" fill="#E6E6E6"/>
<path d="M121.008 21.6785L120.794 18.9189C120.738 18.1905 121.284 17.5519 122.011 17.4954L125.885 17.1944C126.613 17.1379 127.251 17.6846 127.307 18.413L127.521 21.1725C127.578 21.901 127.032 22.5396 126.304 22.5961L122.43 22.897C121.703 22.9535 121.064 22.4069 121.008 21.6785V21.6785Z" fill="#6C63FF"/>
<path d="M114.481 43.735L113.69 33.5249C113.633 32.7965 114.179 32.1579 114.907 32.1013L120.641 31.6559C121.369 31.5993 122.007 32.146 122.063 32.8744L122.855 43.0845C122.912 43.8129 122.366 44.4515 121.638 44.5081L115.903 44.9535C115.176 45.0101 114.538 44.4634 114.481 43.735V43.735Z" fill="#3F3D56"/>
<path d="M129.296 66.6277C128.601 66.657 127.999 66.1374 127.924 65.4451L126.869 55.599C126.824 55.1787 126.976 54.7731 127.286 54.4857C127.595 54.1985 128.011 54.0784 128.426 54.1548L128.722 54.2098C129.311 54.3191 129.755 54.8125 129.801 55.4101L130.56 65.2013C130.588 65.5629 130.471 65.9116 130.231 66.183C130.001 66.4424 129.688 66.598 129.344 66.6247C129.328 66.6259 129.312 66.627 129.296 66.6277Z" fill="#3F3D56"/>
<path d="M117.159 66.2007L116.365 55.9609C116.309 55.238 116.83 54.614 117.55 54.5401L122.752 54.0081C123.474 53.942 124.126 54.4623 124.203 55.1855L125.307 65.5291C125.346 65.8883 125.24 66.2391 125.009 66.5168C124.778 66.7946 124.453 66.963 124.093 66.9909L118.581 67.4191C117.853 67.4756 117.215 66.929 117.159 66.2007V66.2007Z" fill="#3F3D56"/>
<path d="M148.508 70.8046L153.156 77.7565L154.259 85.8952L157.528 85.8493L155.66 76.2503L148.239 67.4575C147.742 68.5442 147.843 69.8113 148.508 70.8046Z" fill="#CCCCCC"/>
<path d="M153.947 83.5657L140.703 84.7771L140.72 84.9632L153.964 83.7518L153.947 83.5657Z" fill="#3F3D56"/>
<path d="M153.016 81.9842L140.452 83.0591L140.468 83.2452L153.032 82.1704L153.016 81.9842Z" fill="#3F3D56"/>
<path d="M152.233 80.355L140.226 81.5242L140.244 81.7101L152.251 80.541L152.233 80.355Z" fill="#3F3D56"/>
<path d="M151.73 78.7136L140.212 79.9944L140.233 80.1802L151.751 78.8993L151.73 78.7136Z" fill="#3F3D56"/>
<path d="M151.056 77.2692L139.992 78.5215L140.013 78.7072L151.077 77.4549L151.056 77.2692Z" fill="#3F3D56"/>
<path d="M150.214 76.0177L139.407 76.8572L139.422 77.0434L150.228 76.204L150.214 76.0177Z" fill="#3F3D56"/>
<path d="M149.553 74.7541L139.06 75.6931L139.077 75.8792L149.569 74.9402L149.553 74.7541Z" fill="#3F3D56"/>
<path d="M148.891 73.4948L138.741 74.6235L138.762 74.8093L148.912 73.6806L148.891 73.4948Z" fill="#3F3D56"/>
<path d="M148.42 72.2267L138.385 73.1841L138.403 73.3701L148.438 72.4127L148.42 72.2267Z" fill="#3F3D56"/>
<path d="M147.575 70.9946L137.976 72.043L137.996 72.2288L147.595 71.1804L147.575 70.9946Z" fill="#3F3D56"/>
<path d="M147.116 69.8871L137.586 70.7212L137.603 70.9073L147.132 70.0732L147.116 69.8871Z" fill="#3F3D56"/>
<path d="M136.585 66.8466L135.606 54.215C135.549 53.4865 136.095 52.8479 136.823 52.7914L142.93 52.317C143.657 52.2605 144.295 52.8071 144.352 53.5356L145.331 66.1672C145.388 66.8955 144.842 67.5341 144.114 67.5906L138.007 68.065C137.279 68.1215 136.641 67.5749 136.585 66.8466Z" fill="#6C63FF"/>
<path d="M123.791 86.4087L112.928 86.5592L112.84 86.5603L112.191 78.1865C112.109 77.1275 112.903 76.1989 113.961 76.1168L124.638 75.2873C125.696 75.2051 126.624 75.9999 126.706 77.0589L127.409 86.1279L127.316 86.1351L123.791 86.4087Z" fill="#CCCCCC"/>
<path d="M135.553 43.8784L134.805 34.227C134.748 33.4986 135.294 32.86 136.022 32.8034L138.035 32.6471C138.763 32.5906 139.4 33.1372 139.457 33.8656L140.205 43.517C140.262 44.2454 139.716 44.884 138.988 44.9405L136.975 45.0968C136.248 45.1534 135.61 44.6067 135.553 43.8784V43.8784Z" fill="#3F3D56"/>
<path d="M140.88 86.0184L139.686 77.8662L137.405 70.1732L136.773 68.0673C135.767 67.4909 134.536 68.3147 134.683 69.4659L134.799 70.3756L137.081 78.0686L138.274 86.2208" fill="#CCCCCC"/>
<path d="M77.2241 87.028L63.9369 87.2114L58.6096 27.7553C58.4803 26.3122 58.946 24.8531 59.8874 23.7523L72.9532 8.47337C74.7822 6.33447 77.892 5.94897 80.1872 7.57664L96.5518 19.1822C97.8869 20.129 98.7142 21.6093 98.8215 23.2435L101.763 68.0402L109.165 76.8094L109.181 76.828L111.074 86.5605L77.2241 87.028Z" fill="#E6E6E6"/>
<path d="M74.4411 22.2979L74.2272 19.5383C74.1707 18.8099 74.7168 18.1713 75.4446 18.1147L79.3181 17.8138C80.0458 17.7573 80.6837 18.3039 80.7402 19.0324L80.9542 21.7919C81.0107 22.5203 80.4646 23.159 79.7369 23.2155L75.8634 23.5164C75.1356 23.5729 74.4976 23.0263 74.4411 22.2979Z" fill="#6C63FF"/>
<path d="M67.9143 44.3542L67.1227 34.144C67.0662 33.4156 67.6123 32.777 68.3401 32.7205L74.0745 32.275C74.8021 32.2185 75.4401 32.7651 75.4966 33.4935L76.2882 43.7037C76.3447 44.4321 75.7986 45.0707 75.071 45.1272L69.3366 45.5727C68.6088 45.6292 67.9708 45.0826 67.9143 44.3542V44.3542Z" fill="#3F3D56"/>
<path d="M80.8458 55.2422C80.5798 55.4889 80.4494 55.8375 80.4882 56.1985L81.5432 66.0445C81.607 66.6392 82.1246 67.0854 82.7216 67.0602C83.0355 67.0485 83.3179 66.9114 83.5244 66.6784C83.731 66.4453 83.8315 66.1458 83.8074 65.8351L83.0483 56.0439C83.0085 55.5306 82.6275 55.1067 82.1217 55.013L81.8257 54.958C81.7255 54.9394 81.6253 54.9342 81.527 54.9419C81.2755 54.9614 81.0372 55.0648 80.8458 55.2422Z" fill="#3F3D56"/>
<path d="M65.1173 68.2432C64.838 68.0121 64.6686 67.6857 64.6406 67.324L63.8814 57.5328C63.8351 56.9353 64.1973 56.3792 64.7621 56.1803L65.0462 56.0803C65.4441 55.9407 65.874 55.9952 66.2243 56.2311C66.5748 56.4672 66.7872 56.8447 66.8075 57.2667L67.2826 67.1578C67.3161 67.8533 66.8009 68.4597 66.1095 68.5381C66.0936 68.5399 66.0774 68.5413 66.0614 68.5426C65.7181 68.5692 65.3845 68.4638 65.1173 68.2432H65.1173Z" fill="#3F3D56"/>
<path d="M101.941 71.4238L106.589 78.3757L107.692 86.5144L110.961 86.4684L109.094 76.8695L101.672 68.0767C101.175 69.1633 101.277 70.4305 101.941 71.4238H101.941Z" fill="#CCCCCC"/>
<path d="M107.38 84.1849L94.1357 85.3962L94.1527 85.5823L107.397 84.3709L107.38 84.1849Z" fill="#3F3D56"/>
<path d="M106.449 82.6034L93.8853 83.6782L93.9011 83.8644L106.465 82.7895L106.449 82.6034Z" fill="#3F3D56"/>
<path d="M105.666 80.9744L93.6592 82.1436L93.6773 82.3295L105.684 81.1603L105.666 80.9744Z" fill="#3F3D56"/>
<path d="M105.163 79.3327L93.645 80.6135L93.6656 80.7993L105.184 79.5185L105.163 79.3327Z" fill="#3F3D56"/>
<path d="M104.489 77.8886L93.4248 79.1409L93.4458 79.3266L104.51 78.0743L104.489 77.8886Z" fill="#3F3D56"/>
<path d="M103.647 76.6369L92.8403 77.4763L92.8548 77.6626L103.661 76.8231L103.647 76.6369Z" fill="#3F3D56"/>
<path d="M102.986 75.3733L92.4932 76.3123L92.5098 76.4983L103.002 75.5594L102.986 75.3733Z" fill="#3F3D56"/>
<path d="M102.324 74.114L92.1743 75.2427L92.1949 75.4285L102.345 74.2997L102.324 74.114Z" fill="#3F3D56"/>
<path d="M101.854 72.8458L91.8184 73.8032L91.8361 73.9892L101.871 73.0318L101.854 72.8458Z" fill="#3F3D56"/>
<path d="M101.008 71.6137L91.4092 72.6621L91.4294 72.8479L101.028 71.7995L101.008 71.6137Z" fill="#3F3D56"/>
<path d="M100.549 70.5063L91.0195 71.3403L91.0358 71.5265L100.566 70.6924L100.549 70.5063Z" fill="#3F3D56"/>
<path d="M90.0181 67.4657L89.0387 54.8342C88.9822 54.1057 89.5283 53.467 90.256 53.4105L96.3627 52.9361C97.0904 52.8796 97.7283 53.4263 97.7848 54.1548L98.7642 66.7863C98.8206 67.5146 98.2746 68.1533 97.5469 68.2098L91.4403 68.6841C90.7125 68.7407 90.0745 68.194 90.0181 67.4657Z" fill="#6C63FF"/>
<path d="M77.2245 87.0279L66.3612 87.1784L66.2737 87.1795L65.6245 78.8056C65.5424 77.7466 66.3364 76.8181 67.3944 76.7359L78.0717 75.9065C79.1297 75.8243 80.0572 76.6191 80.1393 77.6781L80.8425 86.747L80.7494 86.7542L77.2245 87.0279Z" fill="#CCCCCC"/>
<path d="M88.9862 44.4975L88.2379 34.8461C88.1814 34.1177 88.7275 33.4791 89.4553 33.4226L91.468 33.2662C92.1957 33.2097 92.8336 33.7563 92.8901 34.4847L93.6384 44.1361C93.6949 44.8645 93.1489 45.5031 92.4211 45.5596L90.4084 45.716C89.6807 45.7725 89.0427 45.2259 88.9862 44.4975V44.4975Z" fill="#3F3D56"/>
<path d="M94.3128 86.6376L93.1191 78.4853L90.8377 70.7923L90.2064 68.6864C89.2 68.11 87.9687 68.9338 88.1161 70.0851L88.2325 70.9947L90.5138 78.6877L91.7075 86.8399" fill="#CCCCCC"/>
<path d="M30.6572 87.647L17.37 87.8305L12.0427 28.3744C11.9134 26.9313 12.3791 25.4722 13.3205 24.3713L26.3863 9.09245C28.2153 6.95364 31.3253 6.56812 33.6201 8.19573L49.9849 19.8013C51.32 20.7481 52.1472 22.2284 52.2545 23.8626L55.1965 68.6592L62.598 77.4285L62.6135 77.4471L64.5071 87.1796L30.6572 87.647L30.6572 87.647Z" fill="#E6E6E6"/>
<path d="M27.8742 22.917L27.6603 20.1574C27.6038 19.429 28.1499 18.7904 28.8777 18.7339L32.7512 18.433C33.4788 18.3764 34.1168 18.9231 34.1733 19.6515L34.3873 22.4111C34.4438 23.1395 33.8977 23.7781 33.17 23.8346L29.2965 24.1355C28.5687 24.1921 27.9307 23.6454 27.8742 22.917Z" fill="#6C63FF"/>
<path d="M21.3474 44.9733L20.5558 34.7632C20.4993 34.0348 21.0454 33.3961 21.7732 33.3396L27.5076 32.8942C28.2352 32.8376 28.8732 33.3843 28.9297 34.1127L29.7213 44.3228C29.7778 45.0512 29.2317 45.6898 28.5041 45.7464L22.7697 46.1918C22.0419 46.2483 21.4039 45.7017 21.3474 44.9733V44.9733Z" fill="#3F3D56"/>
<path d="M18.2262 56.8876L18.5102 56.7876C19.287 56.5143 20.1077 57.0671 20.1472 57.8904L20.6224 67.7814C20.6536 68.4299 20.1765 68.9912 19.532 69.0643C18.8398 69.1429 18.2206 68.6311 18.1667 67.9359L17.4075 58.1447C17.3644 57.5884 17.7003 57.0726 18.2262 56.8876V56.8876V56.8876Z" fill="#3F3D56"/>
<path d="M24.0251 67.439L23.2312 57.1992C23.1751 56.4764 23.6957 55.8524 24.4165 55.7785L29.6185 55.2464C30.3438 55.1784 30.9922 55.7006 31.0694 56.4238L32.1735 66.7674C32.2117 67.1266 32.1058 67.4774 31.8751 67.7552C31.6445 68.0329 31.3193 68.2013 30.9595 68.2293L25.4474 68.6574C24.7196 68.714 24.0816 68.1673 24.0251 67.439H24.0251Z" fill="#3F3D56"/>
<path d="M55.3743 72.0432L60.023 78.9951L61.1258 87.1338L64.3946 87.0878L62.5271 77.4888L55.1059 68.696C54.6085 69.7827 54.7101 71.0498 55.3743 72.0432H55.3743Z" fill="#CCCCCC"/>
<path d="M60.8137 84.804L47.5693 86.0154L47.5863 86.2014L60.8307 84.9901L60.8137 84.804Z" fill="#3F3D56"/>
<path d="M59.8818 83.2225L47.3184 84.2974L47.3343 84.4835L59.8977 83.4087L59.8818 83.2225Z" fill="#3F3D56"/>
<path d="M59.0989 81.5935L47.0923 82.7627L47.1104 82.9487L59.117 81.7795L59.0989 81.5935Z" fill="#3F3D56"/>
<path d="M58.5962 79.9518L47.0781 81.2327L47.0987 81.4184L58.6168 80.1376L58.5962 79.9518Z" fill="#3F3D56"/>
<path d="M57.9226 78.5077L46.8579 79.76L46.8789 79.9458L57.9436 78.6935L57.9226 78.5077Z" fill="#3F3D56"/>
<path d="M57.0798 77.256L46.2734 78.0955L46.2879 78.2817L57.0942 77.4423L57.0798 77.256Z" fill="#3F3D56"/>
<path d="M56.4193 75.9924L45.9268 76.9314L45.9434 77.1175L56.4359 76.1785L56.4193 75.9924Z" fill="#3F3D56"/>
<path d="M55.7575 74.7333L45.6074 75.8621L45.628 76.0478L55.7782 74.9191L55.7575 74.7333Z" fill="#3F3D56"/>
<path d="M55.2866 73.4649L45.2515 74.4224L45.2692 74.6084L55.3044 73.651L55.2866 73.4649Z" fill="#3F3D56"/>
<path d="M54.4408 72.2328L44.8423 73.2812L44.8625 73.4671L54.4611 72.4187L54.4408 72.2328Z" fill="#3F3D56"/>
<path d="M53.9829 71.1257L44.4531 71.9597L44.4694 72.1458L53.9991 71.3118L53.9829 71.1257Z" fill="#3F3D56"/>
<path d="M43.4512 68.0849L42.4718 55.4533C42.4153 54.7248 42.9614 54.0862 43.6892 54.0297L49.7958 53.5553C50.5234 53.4988 51.1614 54.0454 51.2179 54.7739L52.1973 67.4055C52.2537 68.1338 51.7076 68.7724 50.98 68.8289L44.8735 69.3033C44.1456 69.3598 43.5076 68.8132 43.4512 68.0849H43.4512Z" fill="#6C63FF"/>
<path d="M30.6576 87.647L19.7943 87.7975L19.7069 87.7986L19.0576 79.4248C18.9755 78.3657 19.7695 77.4372 20.8275 77.355L31.5048 76.5256C32.5628 76.4434 33.4903 77.2382 33.5724 78.2972L34.2756 87.3661L34.1825 87.3734L30.6576 87.647Z" fill="#CCCCCC"/>
<path d="M42.4193 45.1166L41.671 35.4653C41.6145 34.7369 42.1606 34.0982 42.8885 34.0417L44.9011 33.8854C45.6287 33.8288 46.2667 34.3755 46.3232 35.1039L47.0715 44.7552C47.128 45.4836 46.5819 46.1223 45.8542 46.1788L43.8416 46.3351C43.1138 46.3917 42.4758 45.845 42.4193 45.1166V45.1166Z" fill="#3F3D56"/>
<path d="M47.7459 87.2567L46.5522 79.1045L44.2708 71.4115L43.6395 69.3056C42.6331 68.7292 41.4018 69.553 41.5492 70.7042L41.6656 71.6139L43.9469 79.3068L45.1406 87.4591" fill="#CCCCCC"/>
<path d="M170.166 85.6917L0 87.8997L0.00483925 88.2733L170.171 86.0653L170.166 85.6917Z" fill="#CCCCCC"/>
<path d="M56.4601 163.79C56.0793 163.147 54.4316 163.836 54.1286 163.252C53.8268 162.671 55.3577 161.785 56.2323 159.762C56.3901 159.397 57.384 157.098 56.6482 156.388C55.2535 155.043 48.8712 160.593 46.6377 158.777C46.1475 158.378 45.8051 157.583 44.3216 156.291C43.7314 155.777 43.3745 155.545 43.0291 155.631C42.5391 155.754 42.5002 156.41 41.9747 157.701C41.1866 159.637 40.7205 159.52 40.2613 161.065C39.9205 162.211 39.9983 162.878 39.5972 163.008C39.0296 163.191 38.5072 161.975 37.7878 162.084C37.0538 162.195 36.61 163.611 36.4698 164.671C36.2068 166.661 36.9367 167.974 37.3413 169.354C37.7809 170.854 38.0419 173.136 37.0265 176.365L26.9771 204.707C29.1957 198.891 35.6196 182.949 38.319 177.025C39.0982 175.315 39.9586 173.58 41.7253 172.896C43.4262 172.236 45.7621 172.63 48.7402 171.912C49.088 171.828 50.0532 171.582 50.1747 171.014C50.2751 170.544 49.7074 170.282 49.7946 169.842C49.9116 169.252 51.028 169.245 52.3999 168.564C53.3673 168.084 53.97 167.513 54.4883 167.022C54.6445 166.874 56.9672 164.646 56.4602 163.79H56.4601V163.79Z" fill="#F2F2F2"/>
<path d="M16.9225 178.71C16.4974 178.712 16.3595 179.72 15.986 179.7C15.6139 179.681 15.6213 178.673 14.8816 177.66C14.7482 177.477 13.9075 176.325 13.3473 176.482C12.2854 176.779 13.1653 181.516 11.6303 182.089C11.2934 182.215 10.8044 182.153 9.74296 182.51C9.32067 182.651 9.10393 182.76 9.04661 182.954C8.96527 183.23 9.27597 183.439 9.7573 184.069C10.4792 185.015 10.2873 185.21 10.9122 185.882C11.3761 186.38 11.7254 186.534 11.6733 186.768C11.5997 187.1 10.8526 187.006 10.6984 187.391C10.5411 187.784 11.1074 188.41 11.5868 188.785C12.4865 189.488 13.3408 189.508 14.1344 189.708C14.9969 189.925 16.1908 190.455 17.4815 191.886L28.4789 205C26.2674 202.232 20.3039 194.476 18.1779 191.441C17.5641 190.565 16.9618 189.642 17.1359 188.576C17.3034 187.55 18.1704 186.516 18.6776 184.846C18.7368 184.651 18.8947 184.106 18.6512 183.882C18.4498 183.697 18.1574 183.901 17.9669 183.731C17.7112 183.503 18.0298 182.952 18.0918 182.082C18.1355 181.468 18.0294 181.007 17.9381 180.611C17.9106 180.492 17.4884 178.708 16.9225 178.71V178.71H16.9225Z" fill="#F2F2F2"/>
<path d="M25.4031 180.616L25.147 178.327L25.264 178.154C25.8055 177.351 26.0815 176.568 26.0848 175.824C26.0853 175.706 26.0798 175.588 26.0743 175.467C26.0522 174.99 26.0246 174.397 26.3337 173.705C26.5071 173.319 26.9939 172.426 27.7258 172.537C27.9229 172.565 28.0719 172.655 28.1851 172.761C28.2016 172.735 28.2188 172.708 28.237 172.679C28.4649 172.331 28.6454 172.182 28.8193 172.039C28.9529 171.928 29.0909 171.814 29.3073 171.545C29.4022 171.426 29.4762 171.322 29.5385 171.235C29.7279 170.971 29.9752 170.656 30.4112 170.662C30.8771 170.684 31.1211 171.069 31.2828 171.325C31.5715 171.78 31.7023 172.108 31.789 172.326C31.8204 172.405 31.8563 172.495 31.8745 172.523C32.0247 172.744 33.2451 172.537 33.7049 172.462C34.7377 172.289 35.6313 172.14 35.9995 172.792C36.2634 173.258 36.0674 173.875 35.3995 174.674C35.1914 174.923 34.97 175.112 34.7735 175.26C34.9364 175.357 35.0821 175.506 35.1412 175.74C35.2803 176.295 34.8039 176.851 33.7259 177.395C33.4582 177.53 33.0977 177.712 32.5927 177.799C32.3548 177.84 32.1406 177.85 31.9573 177.855C31.9535 177.961 31.9286 178.076 31.864 178.195C31.6747 178.543 31.2806 178.708 30.6867 178.669C30.0331 178.634 29.4949 178.509 29.0202 178.4C28.6057 178.305 28.2486 178.224 27.9682 178.243C27.4482 178.285 27.0475 178.702 26.5772 179.242L25.4031 180.616H25.4031Z" fill="#F2F2F2"/>
<path d="M26.5914 166.99L24.4448 167.818L24.2475 167.749C23.3349 167.428 22.5078 167.36 21.7882 167.545C21.6738 167.575 21.561 167.61 21.446 167.646C20.9903 167.788 20.4238 167.966 19.6769 167.842C19.2603 167.772 18.274 167.527 18.1951 166.79C18.1718 166.592 18.2216 166.425 18.2954 166.289C18.2656 166.279 18.2356 166.269 18.2032 166.259C17.809 166.127 17.6191 165.99 17.4361 165.858C17.2955 165.757 17.1505 165.652 16.835 165.511C16.6967 165.449 16.5776 165.404 16.4774 165.365C16.1741 165.249 15.8071 165.089 15.7018 164.666C15.605 164.209 15.9158 163.875 16.1215 163.654C16.4882 163.259 16.7722 163.049 16.9605 162.91C17.0294 162.859 17.1068 162.802 17.1289 162.777C17.3044 162.576 16.7952 161.446 16.6059 161.02C16.1774 160.064 15.8065 159.237 16.3432 158.715C16.7269 158.341 17.3725 158.374 18.314 158.818C18.607 158.957 18.8458 159.123 19.0387 159.276C19.0914 159.094 19.1986 158.915 19.41 158.798C19.9108 158.523 20.5687 158.843 21.3676 159.749C21.5668 159.973 21.8334 160.276 22.0458 160.743C22.1457 160.963 22.2096 161.168 22.2614 161.344C22.3649 161.321 22.4823 161.316 22.6129 161.348C22.9973 161.443 23.2575 161.783 23.3697 162.368C23.5024 163.01 23.5182 163.562 23.5329 164.05C23.5462 164.475 23.5588 164.841 23.6481 165.108C23.8206 165.601 24.3248 165.883 24.9663 166.202L26.5914 166.99L26.5914 166.99Z" fill="#F2F2F2"/>
<path d="M25.4031 160.248L25.147 157.96L25.264 157.786C25.8055 156.984 26.0815 156.201 26.0848 155.457C26.0853 155.339 26.0798 155.22 26.0743 155.1C26.0522 154.623 26.0246 154.029 26.3337 153.337C26.5071 152.952 26.9939 152.059 27.7258 152.169C27.9229 152.197 28.0719 152.288 28.1851 152.394C28.2016 152.367 28.2188 152.341 28.237 152.312C28.4649 151.964 28.6454 151.815 28.8193 151.671C28.9529 151.561 29.0909 151.447 29.3073 151.177C29.4022 151.059 29.4762 150.955 29.5385 150.868C29.7279 150.604 29.9752 150.289 30.4112 150.294C30.8771 150.316 31.1211 150.702 31.2828 150.957C31.5715 151.413 31.7023 151.741 31.789 151.958C31.8204 152.038 31.8563 152.127 31.8745 152.155C32.0247 152.376 33.2451 152.169 33.7049 152.094C34.7377 151.922 35.6313 151.773 35.9995 152.425C36.2634 152.891 36.0674 153.508 35.3995 154.307C35.1914 154.555 34.97 154.744 34.7735 154.892C34.9364 154.989 35.0821 155.139 35.1412 155.373C35.2803 155.928 34.8039 156.483 33.7259 157.027C33.4582 157.163 33.0977 157.344 32.5927 157.432C32.3548 157.472 32.1406 157.482 31.9573 157.488C31.9535 157.594 31.9286 157.709 31.864 157.827C31.6747 158.175 31.2806 158.341 30.6867 158.301C30.0331 158.267 29.4949 158.142 29.0202 158.033C28.6057 157.938 28.2486 157.857 27.9682 157.876C27.4482 157.918 27.0475 158.334 26.5772 158.875L25.4031 160.248H25.4031Z" fill="#F2F2F2"/>
<path d="M27.7427 204.67L27.2635 204.369L27.1476 203.815L27.2635 204.369L26.7049 204.433C26.6961 204.381 26.6657 204.262 26.6199 204.075C26.3699 203.052 25.6076 199.938 24.9717 195.034C24.5279 191.61 24.2768 188.091 24.2249 184.572C24.173 181.047 24.3397 178.378 24.4733 176.233C24.5743 174.615 24.6968 173.075 24.8172 171.574C25.1373 167.565 25.4392 163.779 25.2146 159.586C25.1649 158.65 25.0606 156.702 23.9235 154.629C23.2639 153.427 22.3553 152.359 21.2227 151.458L21.927 150.572C23.1772 151.568 24.1824 152.751 24.9149 154.085C26.1756 156.384 26.2893 158.507 26.3439 159.527C26.5725 163.793 26.2672 167.616 25.9438 171.664C25.8245 173.159 25.702 174.693 25.6015 176.304C25.469 178.429 25.304 181.074 25.3553 184.554C25.4061 188.031 25.6545 191.508 26.0922 194.888C26.7204 199.73 27.4716 202.798 27.7184 203.805C27.8498 204.344 27.8773 204.456 27.7427 204.67V204.67H27.7427Z" fill="#F2F2F2"/>
<path d="M19.1493 153.256C19.1029 153.256 19.056 153.254 19.0085 153.251C18.0458 153.199 17.1544 152.622 16.3584 151.537C15.9853 151.027 15.7943 150.444 15.4134 149.283C15.3544 149.104 15.0674 148.196 14.8929 146.946C14.7787 146.129 14.793 145.788 14.9547 145.486C15.1341 145.15 15.4245 144.916 15.7513 144.758C15.7369 144.65 15.7485 144.538 15.7954 144.424C15.9881 143.953 16.5003 144.014 16.7774 144.044C16.9176 144.062 17.0926 144.085 17.2814 144.075C17.5783 144.061 17.7379 143.972 17.9796 143.84C18.2109 143.713 18.4985 143.555 18.9252 143.467C19.7664 143.292 20.4713 143.53 20.7036 143.609C21.9263 144.017 22.529 144.968 23.2267 146.07C23.3658 146.291 23.8433 147.095 24.1585 148.198C24.3859 148.994 24.3539 149.347 24.2854 149.61C24.1463 150.15 23.8179 150.46 22.9839 151.143C22.1128 151.858 21.6757 152.216 21.3003 152.433C20.4265 152.938 19.8779 153.256 19.1493 153.256V153.256H19.1493Z" fill="#F2F2F2"/>
<path d="M271.756 204.155C271.756 204.364 271.586 204.534 271.377 204.534H8.73975V203.776H271.377C271.586 203.776 271.756 203.945 271.756 204.155Z" fill="#E6E6E6"/>
<path d="M195.936 84.2557C195.936 84.2557 181.798 85.9577 184.183 74.7693C186.568 63.5809 200.089 42.9153 200.089 42.9153L207.762 47.2223L198.953 68.0643L202.745 71.0589L195.936 84.2557V84.2557L195.936 84.2557Z" fill="#A0616A"/>
<path d="M242.265 70.6348L240.273 87.0348L190.354 86.7901L200.379 69.3494L242.265 70.6348Z" fill="#6C63FF"/>
<path d="M212.599 43.7866C215.654 39.5161 215.899 34.4549 213.146 32.4822C210.394 30.5094 205.686 32.3721 202.631 36.6426C199.576 40.9131 199.331 45.9743 202.084 47.947C204.836 49.9198 209.544 48.0571 212.599 43.7866Z" fill="#A0616A"/>
<path d="M240.53 133.16H237.465V204.334H240.53V133.16Z" fill="#3F3D56"/>
<path d="M225.818 133.16H222.753V204.334H225.818V133.16Z" fill="#3F3D56"/>
<path d="M143.372 88.3699H140.307V204.334H143.372V88.3699Z" fill="#E6E6E6"/>
<path d="M192.717 133.16H189.652V204.334H192.717V133.16Z" fill="#3F3D56"/>
<path d="M180.988 133.16H177.923V204.334H180.988V133.16Z" fill="#3F3D56"/>
<path d="M234.706 131.626H175.519L164.166 147.746L223.059 151.26L234.706 131.626Z" fill="#3F3D56"/>
<path d="M126.329 76.4741L126.598 64.7839L90.8765 67.5342L90.6938 75.4557L126.329 76.4741Z" fill="#A0616A"/>
<path d="M102.153 66.1375L100.445 70.2517L97.9908 70.3301C97.9908 70.3301 100.864 71.2107 101.662 76.4361L99.3042 77.1434C99.3042 77.1434 97.0402 79.2578 92.8078 79.0527L81.46 78.1025L81.4164 74.1428L89.2594 73.2356C89.2594 73.2356 91.007 72.0848 82.3558 67.3534C82.3558 67.3534 79.49 65.5993 82.0674 56.9372C82.4217 55.7466 83.4918 54.8915 84.7325 54.8646C85.4173 54.8498 86.0589 55.096 86.3151 55.9474C86.967 58.1144 86.3073 60.2747 88.0991 61.6274C89.8909 62.9801 102.153 66.1375 102.153 66.1375L102.153 66.1375Z" fill="#2F2E41"/>
<path d="M230.276 121.167C230.276 121.167 217.951 142.15 190.062 138.368C183.425 137.468 177.586 133.519 174.259 127.7C167.829 116.454 158.066 96.763 161.231 85.6129L114.062 76.6018L110.346 65.1355L161.395 58.4979C165.91 57.9108 170.333 60.1087 172.596 64.0638L197.463 107.533L204.876 108.343L230.276 121.167V121.167Z" fill="#2F2E41"/>
<path d="M127.261 81.2597L126.589 69.5857L91.2046 75.2036L91.6592 83.1141L127.261 81.2597Z" fill="#A0616A"/>
<path d="M102.332 72.9033L100.96 77.1418L98.5204 77.4175C98.5204 77.4175 101.455 78.0639 102.67 83.208L100.377 84.1029C100.377 84.1029 98.2904 86.3927 94.0553 86.5291L82.6679 86.4959L82.3062 82.5525L90.0508 81.0166C90.0508 81.0166 91.7002 79.7288 82.6969 75.7095C82.6969 75.7095 79.6994 74.1918 81.5722 65.3502C81.8296 64.135 82.8275 63.1965 84.0621 63.0698C84.7434 62.9999 85.4028 63.1936 85.7265 64.0216C86.5505 66.129 86.0666 68.3355 87.9613 69.5395C89.856 70.7435 102.332 72.9032 102.332 72.9032L102.332 72.9033H102.332Z" fill="#2F2E41"/>
<path d="M234.463 117.437C234.463 117.437 223.865 139.344 195.762 137.821C189.074 137.458 182.937 133.992 179.153 128.46C171.84 117.768 160.526 98.9268 162.784 87.558L115.044 82.3746L110.418 71.2447L160.768 60.5178C165.222 59.5689 169.807 61.4035 172.38 65.1637L200.661 106.489L208.115 106.7L234.463 117.437H234.463Z" fill="#2F2E41"/>
<path d="M202.155 24.9285L199.703 26.7692L212.576 44.5626L215.028 43.949L202.155 24.9285Z" fill="#3F3D56"/>
<path d="M235.626 64.441L249.725 63.8274L255.854 91.4378C255.854 91.4378 242.982 139.909 227.657 138.069C227.657 138.069 218.156 131.013 218.156 128.558C218.156 126.104 205.283 119.969 205.283 119.969L202.218 109.538L211.413 95.426C211.413 95.426 215.091 84.3818 227.351 78.2462L235.626 64.441L235.626 64.441V64.441Z" fill="#6C63FF"/>
<path d="M155.018 85.9155H29.6631V88.9833H90.9615V204.334H94.0264V88.9833H155.018V85.9155Z" fill="#E6E6E6"/>
<path d="M242.982 61.9865C252.122 61.9865 259.532 54.5695 259.532 45.4203C259.532 36.271 252.122 28.854 242.982 28.854C233.841 28.854 226.431 36.271 226.431 45.4203C226.431 54.5695 233.841 61.9865 242.982 61.9865Z" fill="#A0616A"/>
<path d="M185.274 66.5884L173.714 71.1901L196.395 101.255L204.364 95.1192L185.274 66.5884Z" fill="#E6E6E6"/>
<path d="M230.415 124.263C230.415 124.263 226.124 137.854 216.93 131.058C207.735 124.263 194.517 103.402 194.517 103.402L201.605 98.1868L216.93 114.825L221.22 112.606L230.415 124.263L230.415 124.263Z" fill="#A0616A"/>
<path d="M237.158 76.4053L251.257 84.9952L230.415 130.399L216.93 111.992L237.158 76.4053Z" fill="#6C63FF"/>
<path d="M199.919 103.662C202.851 101.968 203.101 96.9067 200.477 92.3581C197.853 87.8094 193.35 85.4954 190.418 87.1897C187.486 88.8841 187.236 93.945 189.86 98.4937C192.484 103.042 196.987 105.356 199.919 103.662Z" fill="#A0616A"/>
<path d="M244.791 95.5781C249.039 81.6397 253.597 77.2287 258.39 79.9904C262.037 82.0925 263.135 86.8772 260.998 90.5065C255.548 99.7573 244.32 120.953 246.659 135.001C246.659 135.001 250.337 154.635 220.914 154.635C191.491 154.635 163.293 147.886 163.293 147.886L178.618 145.431L213.468 147.923C221.43 148.492 228.141 141.673 227.077 133.754C227.042 133.493 227.001 133.228 226.952 132.961C225.205 123.343 244.791 95.5781 244.791 95.5781V95.5781Z" fill="#3F3D56"/>
<path d="M236.778 38.553C235.426 42.3422 238.397 46.2768 242.408 46.0092L242.504 46.0028C245.2 49.3763 245.274 54.1484 242.685 57.6045C242.472 62.0591 243.169 66.5103 244.733 70.6859L249.129 82.4181L255.895 79.2574L259.107 87.8366L278 78.0945L266.55 52.3065L263.055 38.3158C260.569 28.3621 250.425 22.3708 240.519 25.0048L232.918 27.0256C226.913 28.6222 223.457 34.915 225.328 40.8452V40.8452L236.778 38.5529" fill="#2F2E41"/>
</g>
<defs>
<clipPath id="clip0_56_366">
<rect width="278" height="205" fill="white"/>
</clipPath>
</defs>
</svg>
